<svg width="30" height="30" fill="none" xmlns="http://www.w3.org/2000/svg"><path d="M15 0C6.716 0 0 6.716 0 15c0 8.284 6.716 15 15 15 8.284 0 15-6.716 15-15 0-8.284-6.716-15-15-15zm0 27.5C8.097 27.5 2.5 21.903 2.5 15S8.097 2.5 15 2.5 27.5 8.097 27.5 15 21.903 27.5 15 27.5z" fill="#FD7900"/><path d="M15 27.5C8.097 27.5 2.5 21.903 2.5 15S8.097 2.5 15 2.5 27.5 8.097 27.5 15 21.903 27.5 15 27.5z" fill="#FD7900"/><path d="M13.384 7.866a1.25 1.25 0 00-1.768 1.768L16.982 15l-5.366 5.366a1.25 1.25 0 001.768 1.768l6.25-6.25a1.25 1.25 0 000-1.768l-6.25-6.25z" fill="#fff"/></svg>