<svg width="40" height="40" fill="none" xmlns="http://www.w3.org/2000/svg"><g filter="url(#filter0_d)" clip-path="url(#clip0)"><path d="M36.721 17.38l-.047-.163a10.994 10.994 0 00-1.033-2.442l-.087-.15.111-.135 1.37-1.654a.763.763 0 00-.046-1.027s0 0 0 0l-2.7-2.73-.001-.001a.765.765 0 00-1.032-.053l3.465 8.355zm0 0l.17.016m-.17-.016l.17.016m0 0l2.16.203h.001a.772.772 0 01.698.756v3.889a.774.774 0 01-.698.766s0 0 0 0l-2.132.203-.168.016-.048.162a11.64 11.64 0 01-1.033 2.435l-.085.15m1.304-8.58l-1.304 8.58m0 0l.11.133m-.11-.133l.11.133m0 0l1.37 1.654c.253.307.23.76-.045 1.035l-2.73 2.73a.763.763 0 01-1.025.046l2.43-5.465zm-1.69-.5a9.872 9.872 0 001.385-3.27v-.002a.765.765 0 01.673-.596h0l1.93-.183.225-.021v-2.485l-.225-.022-1.96-.193h-.001a.765.765 0 01-.683-.597 9.512 9.512 0 00-1.375-3.261l-.001-.002a.756.756 0 01.046-.91l1.249-1.512.144-.175-.16-.16-1.4-1.411-.162-.163-.175.146-1.492 1.238s0 0 0 0a.757.757 0 01-.903.055h0a10.065 10.065 0 00-3.27-1.375h-.002a.765.765 0 01-.595-.672v-.002l-.193-1.939-.023-.225h-2.923v6.32l.306-.07a6.191 6.191 0 012.742 0h0a6.324 6.324 0 014.796 7.55h0a6.309 6.309 0 01-7.539 4.795l-.305-.068v6.338h2.935l.021-.226.183-1.95h0a.753.753 0 01.594-.672h.001a9.511 9.511 0 003.264-1.376l.002-.001a.756.756 0 01.909.046v.001l1.503 1.228.175.144.16-.16 1.421-1.422.16-.16-.143-.175-1.239-1.503s0 0 0 0a.757.757 0 01-.055-.902zm0 0s0 0 0 0l-.209-.137m.21.137s0 0 0 0l-.21-.137m0 0a9.622 9.622 0 001.35-3.188m-1.35 3.188l1.35-3.188m0 0c.092-.426.457-.751.894-.792l1.928-.182m-2.822.974l2.822-.974m0 0v-2.03l-1.959-.194m1.96 2.224l-1.96-2.224m0 0a1.015 1.015 0 01-.903-.792l.903.792zm-4.409-8.69l1.654-1.37.01 22.548-1.654-1.37-.132-.11-.15.084c-.774.437-1.589.775-2.445 1.023l-.163.048-.016.17-.203 2.161s0 0 0 0a.766.766 0 01-.766.698h-3.62v2.686a.77.77 0 01-.766.766.768.768 0 01-.765-.766v-8.676h-7.772l-.05.185a5.067 5.067 0 01-3.56 3.56c-2.7.725-5.475-.862-6.2-3.56l-.05-.185h-.74A3.96 3.96 0 01.25 24.355v-2.69a3.957 3.957 0 012.912-3.81h0l7.036-1.918.082-.023.051-.067 4.182-5.512s0 0 0 0a5.035 5.035 0 013.984-1.973h4.088V3.035c0-.42.345-.765.765-.765.42 0 .765.345.765.765v3.296h3.621c.4 0 .728.3.766.688 0 0 0 0 0 0l.203 2.152.016.168.163.048c.845.248 1.67.596 2.434 1.033l.15.086.133-.11zm-9.266 16.351h.25V9.902h-4.077a3.476 3.476 0 00-2.768 1.368l-4.406 5.776h0l-.004.006a.74.74 0 01-.404.271l-7.367 2.01h-.002a2.443 2.443 0 00-1.787 2.33v2.683a2.416 2.416 0 002.434 2.4h.625l.028-.218a5.074 5.074 0 014.411-4.413 5.066 5.066 0 015.631 4.412l.027.22h7.409zm1.951-10.994l-.17.057v8.98l.171.056a4.817 4.817 0 003.01 0h0a4.781 4.781 0 003.042-6.052 4.785 4.785 0 00-6.053-3.041zM6.35 27.157a3.534 3.534 0 003.53 3.53 3.528 3.528 0 003.528-3.53 3.534 3.534 0 00-3.529-3.529 3.534 3.534 0 00-3.529 3.53z" fill="#FD7900" stroke="#353535" stroke-width=".5"/></g><defs><clipPath id="clip0"><path fill="#fff" d="M0 0h40v40H0z"/></clipPath><filter id="filter0_d" x="-15" y="-12.98" width="70" height="65.96" filterUnits="userSpaceOnUse" color-interpolation-filters="sRGB"><feFlood flood-opacity="0" result="BackgroundImageFix"/><feColorMatrix in="SourceAlpha" values="0 0 0 0 0 0 0 0 0 0 0 0 0 0 0 0 0 0 127 0" result="hardAlpha"/><feOffset/><feGaussianBlur stdDeviation="7.5"/><feComposite in2="hardAlpha" operator="out"/><feColorMatrix values="0 0 0 0 0 0 0 0 0 0 0 0 0 0 0 0 0 0 0.15 0"/><feBlend in2="BackgroundImageFix" result="effect1_dropShadow"/><feBlend in="SourceGraphic" in2="effect1_dropShadow" result="shape"/></filter></defs></svg>