<svg width="56" height="87" fill="none" xmlns="http://www.w3.org/2000/svg"><path d="M0-17h56V85.369a1 1 0 01-1.454.89L28.5 73 1.44 86.292A1 1 0 010 85.395V-17z" fill="#FECB02"/><path d="M22.636 59.18c-.96 0-1.692-.27-2.196-.81-.504-.552-.756-1.338-.756-2.358v-.99h1.872v1.134c0 .816.342 1.224 1.026 1.224.684 0 1.026-.408 1.026-1.224V53.33c0-.828-.342-1.242-1.026-1.242-.684 0-1.026.414-1.026 1.242v.108h-1.872l.36-7.038h5.22v1.8h-3.456l-.162 3.006h.036c.372-.612.942-.918 1.71-.918.72 0 1.266.246 1.638.738.372.492.558 1.206.558 2.142v2.844c0 1.02-.252 1.806-.756 2.358-.504.54-1.236.81-2.196.81zm4.957-.18h-.648v-1.908h1.908v1.71l-.99 2.358h-.918l.648-2.16zm5.607.18c-.972 0-1.716-.276-2.232-.828-.516-.552-.774-1.332-.774-2.34v-6.624c0-1.008.258-1.788.774-2.34.516-.552 1.26-.828 2.232-.828.972 0 1.716.276 2.232.828.516.552.774 1.332.774 2.34v6.624c0 1.008-.258 1.788-.774 2.34-.516.552-1.26.828-2.232.828zm0-1.8c.684 0 1.026-.414 1.026-1.242v-6.876c0-.828-.342-1.242-1.026-1.242-.684 0-1.026.414-1.026 1.242v6.876c0 .828.342 1.242 1.026 1.242z" fill="#000"/><path d="M18.856 23.12c-1.264-.48-1.896-1.752-1.896-3.816 0-.992.168-1.792.504-2.4.352-.608.92-1.056 1.704-1.344.8-.288 1.864-.432 3.192-.432h2.688V29h-2.544v-5.472c-.272 0-.68-.016-1.224-.048L19 29h-2.76l2.616-5.88zm3.648-1.08v-5.448h-.264c-1.12.016-1.896.224-2.328.624-.432.4-.648 1.096-.648 2.088 0 .944.208 1.632.624 2.064.432.432 1.208.656 2.328.672h.288z" fill="#E30E0E"/><path fill-rule="evenodd" clip-rule="evenodd" d="M30.107 10.345a.5.5 0 00-.951 0l-1.735 5.34v14.15l1.917-1.392a.5.5 0 01.587 0l6.69 4.86a.5.5 0 00.77-.558L34.83 24.88a.5.5 0 01.181-.56l6.69-4.86a.5.5 0 00-.294-.904h-8.269a.5.5 0 01-.475-.346l-2.556-7.865z" fill="#000"/></svg>