<svg width="40" height="40" fill="none" xmlns="http://www.w3.org/2000/svg"><g filter="url(#filter0_d)" clip-path="url(#clip0)"><path d="M39.756 7.614l-2.365-2.37a.83.83 0 00-1.179 0l-5.02 5.025c-.367.367-1.106.367-1.474 0-1.093-1.097-2.654-1.727-4.282-1.727h-.002a6.072 6.072 0 00-4.118 1.596l-.727-.727a.833.833 0 00-1.178 0l-.752.751c-1.275-1.086-3.324-1.01-4.515.183L3.678 20.81a3.31 3.31 0 00-.976 2.357c0 .8.28 1.557.794 2.159l-.752.752a.833.833 0 000 1.178l.724.724-3.224 3.23a.832.832 0 000 1.177l2.365 2.369a.83.83 0 001.179 0l3.226-3.23.73.73a.83.83 0 001.179 0l.752-.75c1.272 1.084 3.322 1.008 4.515-.183l10.465-10.465a3.31 3.31 0 00.977-2.357 3.3 3.3 0 00-.795-2.159l.752-.752a.833.833 0 000-1.178l-.71-.71c.398-.247.96-.222 1.295.114 1.093 1.098 2.654 1.728 4.282 1.728 1.628 0 3.188-.63 4.28-1.727l5.02-5.025a.832.832 0 000-1.177zM3.198 32.987l-1.186-1.19 2.635-2.639 1.188 1.19-2.637 2.64zm20.279-13.309L13.01 30.143c-.627.63-1.727.63-2.357 0l-.399-.399a.83.83 0 00-1.178 0l-.744.744-3.821-3.821.744-.744a.832.832 0 000-1.178l-.4-.4a1.658 1.658 0 01-.487-1.179c0-.445.174-.863.488-1.178l10.465-10.465c.629-.629 1.729-.629 2.357 0l.399.4a.833.833 0 001.178 0l.744-.745L23.822 15l-.744.744a.832.832 0 000 1.177l.399.4a1.663 1.663 0 010 2.357zm10.08-7.04c-1.567 1.574-4.635 1.575-6.204 0-.987-.99-2.618-1.024-3.669-.132l-1.189-1.19a4.397 4.397 0 012.941-1.107c1.188 0 2.32.451 3.104 1.238.986.988 2.845.988 3.831 0l4.43-4.434 1.187 1.19-4.432 4.435z" fill="#FD7900"/></g><defs><clipPath id="clip0"><path fill="#fff" d="M0 0h40v40H0z"/></clipPath><filter id="filter0_d" x="-15" y="-10" width="70" height="60" filterUnits="userSpaceOnUse" color-interpolation-filters="sRGB"><feFlood flood-opacity="0" result="BackgroundImageFix"/><feColorMatrix in="SourceAlpha" values="0 0 0 0 0 0 0 0 0 0 0 0 0 0 0 0 0 0 127 0" result="hardAlpha"/><feOffset/><feGaussianBlur stdDeviation="7.5"/><feComposite in2="hardAlpha" operator="out"/><feColorMatrix values="0 0 0 0 0 0 0 0 0 0 0 0 0 0 0 0 0 0 0.15 0"/><feBlend in2="BackgroundImageFix" result="effect1_dropShadow"/><feBlend in="SourceGraphic" in2="effect1_dropShadow" result="shape"/></filter></defs></svg>