<svg width="40" height="40" fill="none" xmlns="http://www.w3.org/2000/svg"><g clip-path="url(#clip0)"><g filter="url(#filter0_d)" fill="#FD7900"><path d="M32.61 16.264c.783-.695 1.67-1.483 1.67-2.586 0-1.103-.887-1.89-1.67-2.585-.444-.393-.947-.839-1.054-1.17-.118-.362.03-1.042.16-1.642.217-1.002.463-2.139-.163-2.998-.631-.867-1.795-.984-2.821-1.086-.606-.06-1.292-.129-1.592-.347-.292-.213-.565-.838-.806-1.39-.416-.952-.888-2.031-1.92-2.367A1.947 1.947 0 0023.812 0c-.79 0-1.54.438-2.267.861-.538.314-1.148.67-1.545.67s-1.007-.356-1.545-.67C17.728.438 16.977 0 16.188 0c-.209 0-.411.031-.602.093-1.033.336-1.504 1.415-1.92 2.367-.24.552-.514 1.177-.806 1.39-.3.218-.986.286-1.592.347-1.026.102-2.19.219-2.821 1.086-.626.86-.38 1.996-.162 2.998.13.6.277 1.28.16 1.642-.108.33-.61.776-1.054 1.17-.783.694-1.671 1.482-1.671 2.585s.888 1.891 1.671 2.586c.443.393.946.838 1.053 1.169.118.363-.03 1.043-.16 1.642-.216 1.003-.463 2.14.163 2.998.63.867 1.792.984 2.818 1.086L7.11 36.55a.8.8 0 001.085.97l4.3-1.883 2.478 3.986a.8.8 0 001.443-.185L20 27.89l3.584 11.548a.8.8 0 001.443.185l2.479-3.986 4.3 1.883a.8.8 0 001.084-.97l-4.155-13.39c1.026-.102 2.188-.219 2.818-1.085.626-.86.38-1.996.163-2.998-.13-.6-.278-1.28-.16-1.643.107-.33.61-.776 1.053-1.17zM15.406 37.29l-1.92-3.088a.8.8 0 00-1-.31l-3.33 1.458 3.68-11.86.023.016c.292.212.565.838.806 1.39.416.952.888 2.031 1.92 2.366.19.062.394.093.602.093.79 0 1.54-.437 2.267-.86.12-.07.244-.143.368-.213L15.406 37.29zm12.106-3.398a.8.8 0 00-1 .31l-1.92 3.088-3.416-11.008c.124.07.248.142.368.212.727.424 1.478.861 2.267.861.209 0 .411-.031.602-.093 1.032-.335 1.504-1.415 1.92-2.367.241-.552.514-1.177.806-1.39l.023-.014 3.68 11.86-3.33-1.46zm2.521-16.954c-.25.773-.063 1.638.118 2.475.139.64.311 1.438.108 1.718-.21.288-1.029.37-1.687.436-.847.084-1.723.172-2.374.645-.643.468-.993 1.269-1.331 2.043-.267.611-.6 1.372-.948 1.485a.347.347 0 01-.108.015c-.357 0-.944-.341-1.461-.643-.748-.436-1.522-.887-2.351-.887-.83 0-1.603.451-2.351.887-.518.302-1.104.643-1.46.643a.344.344 0 01-.109-.015c-.348-.113-.68-.874-.948-1.485-.338-.774-.688-1.575-1.331-2.043-.65-.473-1.527-.56-2.374-.645-.659-.066-1.477-.148-1.687-.436-.204-.28-.031-1.077.108-1.718.181-.837.368-1.702.117-2.475-.241-.745-.888-1.318-1.513-1.872-.53-.471-1.133-1.005-1.133-1.389 0-.383.602-.917 1.133-1.389.625-.554 1.272-1.127 1.514-1.872.25-.773.063-1.638-.118-2.475-.139-.64-.312-1.438-.108-1.718.21-.288 1.029-.37 1.687-.435.847-.085 1.723-.172 2.374-.646.643-.468.993-1.268 1.33-2.042.268-.612.6-1.373.95-1.486a.35.35 0 01.107-.015c.357 0 .943.342 1.461.643.748.437 1.522.888 2.351.888s1.602-.451 2.35-.888c.518-.301 1.105-.643 1.462-.643.041 0 .076.005.107.015.35.113.682.874.949 1.486.338.774.688 1.575 1.331 2.042.65.474 1.527.561 2.374.646.658.066 1.477.147 1.687.435.203.28.03 1.078-.108 1.718-.181.837-.369 1.702-.117 2.475.241.745.887 1.318 1.513 1.873.53.47 1.133 1.005 1.133 1.388 0 .384-.602.918-1.133 1.389-.625.554-1.272 1.127-1.513 1.872z"/><path d="M20 4.612c-5 0-9.066 4.067-9.066 9.066 0 5 4.067 9.066 9.066 9.066 4.999 0 9.066-4.067 9.066-9.066 0-4.999-4.067-9.066-9.066-9.066zm0 16.533c-4.117 0-7.466-3.35-7.466-7.467 0-4.117 3.349-7.466 7.466-7.466s7.466 3.35 7.466 7.466c0 4.117-3.35 7.467-7.466 7.467z"/></g><g filter="url(#filter1_d)"><mask id="path-3-inside-1" fill="#fff"><path d="M32.61 16.264c.783-.695 1.67-1.483 1.67-2.586 0-1.103-.887-1.89-1.67-2.585-.444-.393-.947-.839-1.054-1.17-.118-.362.03-1.042.16-1.642.217-1.002.463-2.139-.163-2.998-.631-.867-1.795-.984-2.821-1.086-.606-.06-1.292-.129-1.592-.347-.292-.213-.565-.838-.806-1.39-.416-.952-.888-2.031-1.92-2.367A1.947 1.947 0 0023.812 0c-.79 0-1.54.438-2.267.861-.538.314-1.148.67-1.545.67s-1.007-.356-1.545-.67C17.728.438 16.977 0 16.188 0c-.209 0-.411.031-.602.093-1.033.336-1.504 1.415-1.92 2.367-.24.552-.514 1.177-.806 1.39-.3.218-.986.286-1.592.347-1.026.102-2.19.219-2.821 1.086-.626.86-.38 1.996-.162 2.998.13.6.277 1.28.16 1.642-.108.33-.61.776-1.054 1.17-.783.694-1.671 1.482-1.671 2.585s.888 1.891 1.671 2.586c.443.393.946.838 1.053 1.169.118.363-.03 1.043-.16 1.642-.216 1.003-.463 2.14.163 2.998.63.867 1.792.984 2.818 1.086L7.11 36.55a.8.8 0 001.085.97l4.3-1.883 2.478 3.986a.8.8 0 001.443-.185L20 27.89l3.584 11.548a.8.8 0 001.443.185l2.479-3.986 4.3 1.883a.8.8 0 001.084-.97l-4.155-13.39c1.026-.102 2.188-.219 2.818-1.085.626-.86.38-1.996.163-2.998-.13-.6-.278-1.28-.16-1.643.107-.33.61-.776 1.053-1.17zM15.406 37.29l-1.92-3.088a.8.8 0 00-1-.31l-3.33 1.458 3.68-11.86.023.016c.292.212.565.838.806 1.39.416.952.888 2.031 1.92 2.366.19.062.394.093.602.093.79 0 1.54-.437 2.267-.86.12-.07.244-.143.368-.213L15.406 37.29zm12.106-3.398a.8.8 0 00-1 .31l-1.92 3.088-3.416-11.008c.124.07.248.142.368.212.727.424 1.478.861 2.267.861.209 0 .411-.031.602-.093 1.032-.335 1.504-1.415 1.92-2.367.241-.552.514-1.177.806-1.39l.023-.014 3.68 11.86-3.33-1.46zm2.521-16.954c-.25.773-.063 1.638.118 2.475.139.64.311 1.438.108 1.718-.21.288-1.029.37-1.687.436-.847.084-1.723.172-2.374.645-.643.468-.993 1.269-1.331 2.043-.267.611-.6 1.372-.948 1.485a.347.347 0 01-.108.015c-.357 0-.944-.341-1.461-.643-.748-.436-1.522-.887-2.351-.887-.83 0-1.603.451-2.351.887-.518.302-1.104.643-1.46.643a.344.344 0 01-.109-.015c-.348-.113-.68-.874-.948-1.485-.338-.774-.688-1.575-1.331-2.043-.65-.473-1.527-.56-2.374-.645-.659-.066-1.477-.148-1.687-.436-.204-.28-.031-1.077.108-1.718.181-.837.368-1.702.117-2.475-.241-.745-.888-1.318-1.513-1.872-.53-.471-1.133-1.005-1.133-1.389 0-.383.602-.917 1.133-1.389.625-.554 1.272-1.127 1.514-1.872.25-.773.063-1.638-.118-2.475-.139-.64-.312-1.438-.108-1.718.21-.288 1.029-.37 1.687-.435.847-.085 1.723-.172 2.374-.646.643-.468.993-1.268 1.33-2.042.268-.612.6-1.373.95-1.486a.35.35 0 01.107-.015c.357 0 .943.342 1.461.643.748.437 1.522.888 2.351.888s1.602-.451 2.35-.888c.518-.301 1.105-.643 1.462-.643.041 0 .076.005.107.015.35.113.682.874.949 1.486.338.774.688 1.575 1.331 2.042.65.474 1.527.561 2.374.646.658.066 1.477.147 1.687.435.203.28.03 1.078-.108 1.718-.181.837-.369 1.702-.117 2.475.241.745.887 1.318 1.513 1.873.53.47 1.133 1.005 1.133 1.388 0 .384-.602.918-1.133 1.389-.625.554-1.272 1.127-1.513 1.872z"/></mask><path d="M32.61 16.264c.783-.695 1.67-1.483 1.67-2.586 0-1.103-.887-1.89-1.67-2.585-.444-.393-.947-.839-1.054-1.17-.118-.362.03-1.042.16-1.642.217-1.002.463-2.139-.163-2.998-.631-.867-1.795-.984-2.821-1.086-.606-.06-1.292-.129-1.592-.347-.292-.213-.565-.838-.806-1.39-.416-.952-.888-2.031-1.92-2.367A1.947 1.947 0 0023.812 0c-.79 0-1.54.438-2.267.861-.538.314-1.148.67-1.545.67s-1.007-.356-1.545-.67C17.728.438 16.977 0 16.188 0c-.209 0-.411.031-.602.093-1.033.336-1.504 1.415-1.92 2.367-.24.552-.514 1.177-.806 1.39-.3.218-.986.286-1.592.347-1.026.102-2.19.219-2.821 1.086-.626.86-.38 1.996-.162 2.998.13.6.277 1.28.16 1.642-.108.33-.61.776-1.054 1.17-.783.694-1.671 1.482-1.671 2.585s.888 1.891 1.671 2.586c.443.393.946.838 1.053 1.169.118.363-.03 1.043-.16 1.642-.216 1.003-.463 2.14.163 2.998.63.867 1.792.984 2.818 1.086L7.11 36.55a.8.8 0 001.085.97l4.3-1.883 2.478 3.986a.8.8 0 001.443-.185L20 27.89l3.584 11.548a.8.8 0 001.443.185l2.479-3.986 4.3 1.883a.8.8 0 001.084-.97l-4.155-13.39c1.026-.102 2.188-.219 2.818-1.085.626-.86.38-1.996.163-2.998-.13-.6-.278-1.28-.16-1.643.107-.33.61-.776 1.053-1.17zM15.406 37.29l-1.92-3.088a.8.8 0 00-1-.31l-3.33 1.458 3.68-11.86.023.016c.292.212.565.838.806 1.39.416.952.888 2.031 1.92 2.366.19.062.394.093.602.093.79 0 1.54-.437 2.267-.86.12-.07.244-.143.368-.213L15.406 37.29zm12.106-3.398a.8.8 0 00-1 .31l-1.92 3.088-3.416-11.008c.124.07.248.142.368.212.727.424 1.478.861 2.267.861.209 0 .411-.031.602-.093 1.032-.335 1.504-1.415 1.92-2.367.241-.552.514-1.177.806-1.39l.023-.014 3.68 11.86-3.33-1.46zm2.521-16.954c-.25.773-.063 1.638.118 2.475.139.64.311 1.438.108 1.718-.21.288-1.029.37-1.687.436-.847.084-1.723.172-2.374.645-.643.468-.993 1.269-1.331 2.043-.267.611-.6 1.372-.948 1.485a.347.347 0 01-.108.015c-.357 0-.944-.341-1.461-.643-.748-.436-1.522-.887-2.351-.887-.83 0-1.603.451-2.351.887-.518.302-1.104.643-1.46.643a.344.344 0 01-.109-.015c-.348-.113-.68-.874-.948-1.485-.338-.774-.688-1.575-1.331-2.043-.65-.473-1.527-.56-2.374-.645-.659-.066-1.477-.148-1.687-.436-.204-.28-.031-1.077.108-1.718.181-.837.368-1.702.117-2.475-.241-.745-.888-1.318-1.513-1.872-.53-.471-1.133-1.005-1.133-1.389 0-.383.602-.917 1.133-1.389.625-.554 1.272-1.127 1.514-1.872.25-.773.063-1.638-.118-2.475-.139-.64-.312-1.438-.108-1.718.21-.288 1.029-.37 1.687-.435.847-.085 1.723-.172 2.374-.646.643-.468.993-1.268 1.33-2.042.268-.612.6-1.373.95-1.486a.35.35 0 01.107-.015c.357 0 .943.342 1.461.643.748.437 1.522.888 2.351.888s1.602-.451 2.35-.888c.518-.301 1.105-.643 1.462-.643.041 0 .076.005.107.015.35.113.682.874.949 1.486.338.774.688 1.575 1.331 2.042.65.474 1.527.561 2.374.646.658.066 1.477.147 1.687.435.203.28.03 1.078-.108 1.718-.181.837-.369 1.702-.117 2.475.241.745.887 1.318 1.513 1.873.53.47 1.133 1.005 1.133 1.388 0 .384-.602.918-1.133 1.389-.625.554-1.272 1.127-1.513 1.872z" fill="#FD7900" stroke="#353535" stroke-width=".4" mask="url(#path-3-inside-1)"/><path d="M11.034 13.678c0-4.943 4.022-8.966 8.966-8.966 4.944 0 8.966 4.023 8.966 8.966 0 4.944-4.022 8.966-8.966 8.966-4.944 0-8.966-4.022-8.966-8.966zm1.4 0c0 4.173 3.394 7.567 7.566 7.567s7.566-3.394 7.566-7.567c0-4.172-3.394-7.566-7.566-7.566s-7.566 3.394-7.566 7.566z" fill="#FD7900" stroke="#353535" stroke-width=".2"/></g></g><defs><filter id="filter0_d" x="-9.28" y="-15" width="58.561" height="70" filterUnits="userSpaceOnUse" color-interpolation-filters="sRGB"><feFlood flood-opacity="0" result="BackgroundImageFix"/><feColorMatrix in="SourceAlpha" values="0 0 0 0 0 0 0 0 0 0 0 0 0 0 0 0 0 0 127 0" result="hardAlpha"/><feOffset/><feGaussianBlur stdDeviation="7.5"/><feComposite in2="hardAlpha" operator="out"/><feColorMatrix values="0 0 0 0 0 0 0 0 0 0 0 0 0 0 0 0 0 0 0.15 0"/><feBlend in2="BackgroundImageFix" result="effect1_dropShadow"/><feBlend in="SourceGraphic" in2="effect1_dropShadow" result="shape"/></filter><filter id="filter1_d" x="-9.28" y="-15" width="58.561" height="70" filterUnits="userSpaceOnUse" color-interpolation-filters="sRGB"><feFlood flood-opacity="0" result="BackgroundImageFix"/><feColorMatrix in="SourceAlpha" values="0 0 0 0 0 0 0 0 0 0 0 0 0 0 0 0 0 0 127 0" result="hardAlpha"/><feOffset/><feGaussianBlur stdDeviation="7.5"/><feComposite in2="hardAlpha" operator="out"/><feColorMatrix values="0 0 0 0 0 0 0 0 0 0 0 0 0 0 0 0 0 0 0.15 0"/><feBlend in2="BackgroundImageFix" result="effect1_dropShadow"/><feBlend in="SourceGraphic" in2="effect1_dropShadow" result="shape"/></filter><clipPath id="clip0"><path fill="#fff" d="M0 0h40v40H0z"/></clipPath></defs></svg>