<svg width="30" height="30" fill="none" xmlns="http://www.w3.org/2000/svg"><g clip-path="url(#clip0)" fill="#FD7900"><path d="M21.884 17.884l-.012.093c-2.748-1.37-3.036-1.552-3.39-1.02-.247.37-.965 1.206-1.18 1.453-.22.244-.437.262-.808.094-.375-.188-1.579-.582-3.004-1.857-1.11-.993-1.855-2.212-2.075-2.587-.366-.633.4-.723 1.098-2.043.124-.262.06-.468-.032-.654-.094-.188-.84-2.026-1.152-2.758-.3-.73-.609-.638-.84-.638-.72-.062-1.247-.052-1.71.43-2.018 2.218-1.509 4.505.217 6.938 3.393 4.44 5.2 5.258 8.505 6.392.893.284 1.706.244 2.35.152.718-.114 2.209-.902 2.52-1.783.319-.881.319-1.612.225-1.781-.092-.169-.337-.263-.712-.431z"/><path d="M25.65 4.311C16.039-4.979.133 1.76.126 14.866c0 2.62.686 5.175 1.994 7.432L0 30l7.919-2.065C17.8 33.273 29.995 26.185 30 14.874c0-3.97-1.55-7.706-4.369-10.514l.019-.049zm1.853 10.522c-.008 9.54-10.482 15.5-18.765 10.63l-.45-.268L3.6 26.414l1.256-4.556-.298-.47c-5.155-8.205.767-18.93 10.532-18.93a12.33 12.33 0 018.776 3.637 12.235 12.235 0 013.637 8.738z"/></g><defs><clipPath id="clip0"><path fill="#fff" d="M0 0h30v30H0z"/></clipPath></defs></svg>